<svg width="814" height="263" viewBox="0 0 814 263" fill="none" xmlns="http://www.w3.org/2000/svg">
<line x1="0" y1="115.911" x2="813.351" y2="115.911" stroke="#64748B" stroke-opacity="0.5" stroke-width="1.5"/>
<rect x="2" y="98.0277" width="20" height="17.8833" fill="#EF4444" fill-opacity="0.35"/>
<rect x="36.348" y="90.7421" width="20" height="25.1689" fill="#EF4444" fill-opacity="0.35"/>
<rect x="70.696" y="60.2738" width="20" height="55.6372" fill="#EF4444" fill-opacity="0.35"/>
<rect x="105.043" y="24.8384" width="20" height="91.0726" fill="#EF4444" fill-opacity="0.35"/>
<rect x="139.391" y="101.803" width="20" height="14.108" fill="#EF4444" fill-opacity="0.35"/>
<rect x="173.739" y="115.911" width="20" height="76.303" fill="#22C55E" fill-opacity="0.35"/>
<rect x="208.087" y="115.911" width="20" height="110.083" fill="#22C55E" fill-opacity="0.35"/>
<rect x="242.435" y="115.911" width="20" height="122.932" fill="#22C55E" fill-opacity="0.35"/>
<rect x="276.783" y="115.911" width="20" height="86.304" fill="#22C55E" fill-opacity="0.35"/>
<rect x="311.13" y="115.911" width="20" height="31.932" fill="#22C55E" fill-opacity="0.35"/>
<rect x="345.478" y="91.073" width="20" height="24.838" fill="#EF4444" fill-opacity="0.35"/>
<rect x="379.826" y="15.2342" width="20" height="100.677" fill="#EF4444" fill-opacity="0.35"/>
<rect x="414.174" y="47.6891" width="20" height="68.2219" fill="#EF4444" fill-opacity="0.35"/>
<rect x="448.522" y="0" width="20" height="115.911" fill="#EF4444" fill-opacity="0.35"/>
<rect x="482.87" y="50.3386" width="20" height="65.5724" fill="#EF4444" fill-opacity="0.35"/>
<rect x="517.217" y="83.4564" width="20" height="32.4546" fill="#EF4444" fill-opacity="0.35"/>
<rect x="551.565" y="115.911" width="20" height="31.131" fill="#22C55E" fill-opacity="0.35"/>
<rect x="585.913" y="111.275" width="20" height="4.636" fill="#EF4444" fill-opacity="0.35"/>
<rect x="620.261" y="115.911" width="20" height="86.105" fill="#22C55E" fill-opacity="0.35"/>
<rect x="654.609" y="115.911" width="20" height="116.574" fill="#22C55E" fill-opacity="0.35"/>
<rect x="688.957" y="115.911" width="20" height="77.495" fill="#22C55E" fill-opacity="0.35"/>
<rect x="723.304" y="115.911" width="20" height="147.042" fill="#22C55E" fill-opacity="0.35"/>
<rect x="757.652" y="115.911" width="20" height="135.782" fill="#22C55E" fill-opacity="0.35"/>
<rect x="792" y="115.911" width="20" height="109.951" fill="#22C55E" fill-opacity="0.35"/>
</svg>
