<svg width="1283" height="211" viewBox="0 0 1283 211" fill="none" xmlns="http://www.w3.org/2000/svg">
<rect x="0" y="105.365" width="53.9165" height="19.6196" fill="#EF4444" fill-opacity="0.4"/>
<rect x="53.9165" y="105.365" width="53.9165" height="27.6138" fill="#EF4444" fill-opacity="0.4"/>
<rect x="107.833" y="105.365" width="53.917" height="61.0401" fill="#EF4444" fill-opacity="0.4"/>
<rect x="161.75" y="105.365" width="53.917" height="99.9151" fill="#EF4444" fill-opacity="0.4"/>
<rect x="215.667" y="105.365" width="53.783" height="15.4775" fill="#EF4444" fill-opacity="0.4"/>
<rect x="269.45" y="21.799" width="53.917" height="83.566" fill="#10B981" fill-opacity="0.4"/>
<rect x="323.367" y="21.799" width="53.917" height="83.566" fill="#10B981" fill-opacity="0.4"/>
<rect x="377.284" y="21.799" width="53.916" height="83.566" fill="#10B981" fill-opacity="0.4"/>
<rect x="431.2" y="21.799" width="53.917" height="83.566" fill="#10B981" fill-opacity="0.4"/>
<rect x="485.117" y="70.332" width="54.05" height="35.033" fill="#10B981" fill-opacity="0.4"/>
<rect x="539.167" y="105.365" width="53.916" height="17.4397" fill="#EF4444" fill-opacity="0.4"/>
<rect x="593.083" y="105.365" width="53.917" height="105.365" fill="#EF4444" fill-opacity="0.4"/>
<rect x="647" y="105.365" width="53.917" height="53.0467" fill="#EF4444" fill-opacity="0.4"/>
<rect x="700.917" y="105.365" width="53.916" height="105.365" fill="#EF4444" fill-opacity="0.4"/>
<rect x="754.833" y="105.365" width="53.917" height="71.9387" fill="#EF4444" fill-opacity="0.4"/>
<rect x="808.75" y="105.365" width="53.784" height="35.607" fill="#EF4444" fill-opacity="0.4"/>
<rect x="862.534" y="99.312" width="54.049" height="6.053" fill="#10B981" fill-opacity="0.4"/>
<rect x="916.583" y="105.365" width="53.784" height="5.086" fill="#EF4444" fill-opacity="0.4"/>
<rect x="970.367" y="88.651" width="53.913" height="16.714" fill="#10B981" fill-opacity="0.4"/>
<rect x="1024.28" y="55.225" width="53.92" height="50.14" fill="#10B981" fill-opacity="0.4"/>
<rect x="1078.2" y="21.799" width="53.92" height="83.566" fill="#10B981" fill-opacity="0.4"/>
<rect x="1132.12" y="21.799" width="53.91" height="83.566" fill="#10B981" fill-opacity="0.4"/>
<rect x="1186.03" y="34.152" width="53.92" height="71.213" fill="#10B981" fill-opacity="0.4"/>
<rect x="1239.95" y="50.778" width="43.05" height="54.587" fill="#10B981" fill-opacity="0.4"/>
</svg>
